<svg xmlns="http://www.w3.org/2000/svg" viewBox="0 0 76.9 74.3"><defs><style>.cls-1{isolation:isolate;}.cls-2{fill:#e0e0e0;}.cls-3{fill:#00695c;}</style></defs><g id="Camada_2" data-name="Camada 2"><g id="Camada_1-2" data-name="Camada 1"><g class="cls-1"><path class="cls-2" d="M48.89,46.92a5.39,5.39,0,0,1-1.39,4,5,5,0,0,1-3.78,1.42,6.3,6.3,0,0,1-2-.29,5.31,5.31,0,0,1-1.35-.65,2.65,2.65,0,0,1-.61-.51l1.38-3.2a3.17,3.17,0,0,0,.74.71,2.16,2.16,0,0,0,1.29.38,2,2,0,0,0,1.46-.57,2.7,2.7,0,0,0,.58-2V35.5h3.68Z"/><path class="cls-2" d="M56.68,52.3a6.2,6.2,0,0,1-3-.69,5.27,5.27,0,0,1-2.05-1.92,5.2,5.2,0,0,1-.75-2.79,5.26,5.26,0,0,1,2.8-4.75,6.59,6.59,0,0,1,5.95,0,5.28,5.28,0,0,1,2,1.94,5.47,5.47,0,0,1,.72,2.81,5.37,5.37,0,0,1-.72,2.79,5.23,5.23,0,0,1-2,1.92A6.21,6.21,0,0,1,56.68,52.3Zm0-3.09a2,2,0,0,0,1.59-.65,2.4,2.4,0,0,0,.59-1.67,2.48,2.48,0,0,0-.59-1.7,2,2,0,0,0-1.59-.66,2,2,0,0,0-1.59.66,2.44,2.44,0,0,0-.6,1.7,2.36,2.36,0,0,0,.6,1.67A2,2,0,0,0,56.68,49.21Z"/><path class="cls-2" d="M64.32,52V34.8h3.73v8.45a2.15,2.15,0,0,1,.59-.78,4.34,4.34,0,0,1,1.25-.73,4.75,4.75,0,0,1,1.75-.3,4.55,4.55,0,0,1,2.59.73,5,5,0,0,1,1.71,2,6.56,6.56,0,0,1,0,5.48,5,5,0,0,1-1.71,2,4.62,4.62,0,0,1-2.59.72,4.1,4.1,0,0,1-1.57-.3,4.71,4.71,0,0,1-1.27-.76,3.33,3.33,0,0,1-.78-.91V52Zm8.55-5.13a2.45,2.45,0,0,0-.69-1.78,2.24,2.24,0,0,0-1.68-.72,2.35,2.35,0,0,0-1.75.72,2.49,2.49,0,0,0-.7,1.78,2.47,2.47,0,0,0,.7,1.79,2.37,2.37,0,0,0,1.75.7,2.26,2.26,0,0,0,1.68-.7A2.43,2.43,0,0,0,72.87,46.87Z"/></g><g class="cls-1"><path class="cls-2" d="M18.76,74V65.6h-10V74H7.53V56.49H8.74v8h10v-8H20V74Z"/><path class="cls-2" d="M32.46,74V71.73h-.05a4.26,4.26,0,0,1-4,2.57c-3,0-4.43-1.85-4.43-5.57V61.5h1.13v7a6.3,6.3,0,0,0,.84,3.68,3,3,0,0,0,2.63,1.15A3.54,3.54,0,0,0,31.38,72a5.15,5.15,0,0,0,1.08-3.42V61.5h1.12V74Z"/><path class="cls-2" d="M46.08,74V66.72q0-4.5-3.25-4.5a3.76,3.76,0,0,0-3,1.32,4.79,4.79,0,0,0-1.16,3.28V74H37.58V61.5h1.13v2.27h0A4.53,4.53,0,0,1,43,61.2a3.73,3.73,0,0,1,3.1,1.34,6.1,6.1,0,0,1,1.07,3.85V74Z"/><path class="cls-2" d="M55.91,73.83a3.85,3.85,0,0,1-1.65.41c-1.85,0-2.77-1.1-2.77-3.32V62.53H49.24v-1h2.25V58.25l.56-.19.56-.19V61.5h3.3v1h-3.3v8.25A3.34,3.34,0,0,0,53,72.65a1.56,1.56,0,0,0,1.38.58,3.13,3.13,0,0,0,1.51-.45Z"/><path class="cls-2" d="M58.65,67.8a6.2,6.2,0,0,0,1.19,4,4,4,0,0,0,3.27,1.45,6.67,6.67,0,0,0,4.1-1.55v1.2a7.29,7.29,0,0,1-4.33,1.37A4.88,4.88,0,0,1,59,72.57a7.29,7.29,0,0,1-1.49-4.89A7,7,0,0,1,59,63.07a5,5,0,0,1,4-1.87,4.22,4.22,0,0,1,3.58,1.63,7.21,7.21,0,0,1,1.25,4.47v.5Zm8.08-1a5.52,5.52,0,0,0-1-3.35A3.24,3.24,0,0,0,63,62.22a3.89,3.89,0,0,0-2.91,1.18,5.64,5.64,0,0,0-1.42,3.37Z"/><path class="cls-2" d="M76.9,62.67a2.18,2.18,0,0,0-1.32-.4,2.91,2.91,0,0,0-2.47,1.52,7.89,7.89,0,0,0-1,4.34V74H71V61.5H72.1v2.77h.05a4.59,4.59,0,0,1,1.36-2.22,3.19,3.19,0,0,1,2.15-.79,3.23,3.23,0,0,1,1.24.22Z"/></g><g id="Layer_1" data-name="Layer 1"><path id="Caminho_5" data-name="Caminho 5" class="cls-3" d="M36.59,49.05A12.77,12.77,0,0,0,38.2,45.7c.57-2.05.33-3.51-1.67-4.74a36.92,36.92,0,0,1-4.34-2.64c-.24-.2-.27-.06-.38.14a16.64,16.64,0,0,0-1.56,3.78,26.32,26.32,0,0,0-1,7.23c0,.53.07,1.08.11,1.63,0,.26.08.58-.34.51s-.86.3-.91-.41a25.37,25.37,0,0,1,0-4.27,13.1,13.1,0,0,0-.06-3.19A40.05,40.05,0,0,0,27,39c-.14-.47-.33-.73-.94-.68a10.87,10.87,0,0,1-5.28-.88c-.56-.24-1.21-.21-1.77-.5-.17-.1-.32,0-.4.18-.81,1.8-2.61,2.64-3.89,4a1.85,1.85,0,0,0-.58,1.31,10.24,10.24,0,0,0,2,6.71A9.63,9.63,0,0,1,17.24,51c.13.29.43.54-.1.6a1.61,1.61,0,0,1-1.63-.93,44.51,44.51,0,0,0-2.29-4c-.67-1.1-1.27-2.25-1.88-3.39a8.77,8.77,0,0,0-.58-.87c-.29-.4-.46-.77,0-1.24a1.82,1.82,0,0,0,.46-1.85c-.11-.39-.3-.57-.72-.4-1.55.63-3.19,1.08-4.34,2.43a4.12,4.12,0,0,0-.77,1.87,6.39,6.39,0,0,0,.16,3.16C6,48,6.61,49.45,7.1,51c.08.22.35.62-.12.65S6,52,5.83,51.22a11,11,0,0,0-.53-1.69c-.75-1.94-1.3-4-2-5.9-.34-.94-.64-1.92-1-2.88a.84.84,0,0,1,.28-1,5.25,5.25,0,0,0,2-4.34,10,10,0,0,1,.39-3c.08-.3.1-.51-.3-.64a6.59,6.59,0,0,1-3.13-2.3C0,27.6-.1,25.48,0,23.28a2,2,0,0,1,.06-.34c.07-.3.2-.57.56-.57a.64.64,0,0,1,.68.59A7.86,7.86,0,0,0,2,25.14,4.48,4.48,0,0,0,6.34,27.8a2.85,2.85,0,0,0,1.71-.37,8.19,8.19,0,0,1,4.4-1.2c2.28-.1,4.55.21,6.82.26a18.42,18.42,0,0,0,3.47-.3,3.14,3.14,0,0,0,2.18-3.08,21.86,21.86,0,0,0-.18-2.55c-.19-1.69-.4-3.45.38-5a3.84,3.84,0,0,0,.44-2.9,1.51,1.51,0,0,1,.16-.76c.2-.59.62-.7,1-.23s1.42.73,2.05,1.22c.1.08.27,0,.39-.15-.29-.33-.72-.36-1-.62A7.94,7.94,0,0,1,26.2,1.84a15,15,0,0,1,1-1.38A1.4,1.4,0,0,1,27.82,0a.66.66,0,0,1,.75.26.47.47,0,0,1-.12.65,8.15,8.15,0,0,0-1.44,2,5.55,5.55,0,0,0-.55,3.89c.41-.86.76-1.75,1.24-2.55.25-.42.51-.75,1-.45s.35.72.06,1.11a6.44,6.44,0,0,0-1,4.54,2.71,2.71,0,0,0,.09.41,2.69,2.69,0,0,0,.16.29,19.29,19.29,0,0,1,.48-2.13,9.19,9.19,0,0,1,.36-.86c.18-.31.42-.6.85-.38a.58.58,0,0,1,.31.76.56.56,0,0,1,0,.08,8.23,8.23,0,0,0-.58,2.12c-.19,1.47.08,2,1.47,2.46a6.57,6.57,0,0,0,6.77-1.45,5.81,5.81,0,0,0,.43-.43.51.51,0,0,1,.85,0,.53.53,0,0,1,.08.76l-.08.09a7.89,7.89,0,0,1-5.58,2.7,16,16,0,0,1,1.56,1.63,3,3,0,0,1,.63,1.18,1.52,1.52,0,0,0,.67,1.11,17.16,17.16,0,0,1,1.62,1.57.47.47,0,0,1,.21.27c.19.67-1.2,2.28-1.88,2.16s-1.28-.25-2-.4c.3.55.52,1,.78,1.44A7.33,7.33,0,0,1,36,26.64a13.31,13.31,0,0,1-.83,5.86c-.33.73.2,1.21.46,1.75.48,1,1,1.89,1.54,2.85a21.4,21.4,0,0,0,2.07,3.18,1.45,1.45,0,0,1,.33,1.15,8.72,8.72,0,0,0,0,2.55c.22,1.59-.53,2.9-1.08,4.26a1.43,1.43,0,0,1-1.82.87ZM2,27.58c0-.08-.07-.2-.17-.12s0,.17.06.22a4.88,4.88,0,0,0,2.26,2.5c1.14.69,1.25.63,1.75-.56A.24.24,0,0,1,6,29.51c.29-.43.06-.5-.3-.46a4.57,4.57,0,0,1-2.42-.69c-.44-.21-.71-.69-1.24-.77ZM29,41.67a22.34,22.34,0,0,1,2.34-4.94,23.19,23.19,0,0,0,1.68-2.46A12.34,12.34,0,0,0,34.74,29c.06-2.09.15-4.15-1.18-6a7.31,7.31,0,0,0-2.92-2.86,5.15,5.15,0,0,1-2-1.35c-.18-.23-.28-.48-.13-.71a.63.63,0,0,1,.7-.23,1.41,1.41,0,0,1,.51.24c1.67,1.5,3.81,1.78,5.86,2.33.38.1.72.06.9-.33s-.25-.5-.43-.71c-.65-.81-1.9-1.19-1.79-2.54,0-.05-.07-.11-.11-.17a6,6,0,0,0-2.46-2.17A4.06,4.06,0,0,0,29.59,14c-.27,0-.42.1-.45.42-.08,1-.29,1-1.46.87l-.5-.1a.67.67,0,0,0-.82.46.09.09,0,0,1,0,.05,8.1,8.1,0,0,0-.51,3.61c.1,1.33.34,2.64.32,4a4,4,0,0,1-3.77,4.26h-.11a24.08,24.08,0,0,1-3.7.1c-2.28-.06-4.56-.12-6.84-.06A5,5,0,0,0,7,30.51a10,10,0,0,0-1.14,4.65,6.19,6.19,0,0,1-2,5.08.53.53,0,0,0-.15.64c.13.35.26.71.38,1.07,0,.11.09.26.22.22a.39.39,0,0,0,.22-.25,4.26,4.26,0,0,1,1.87-2.4,6.78,6.78,0,0,1,2.14-1.05c1.16-.36,2.31-.82,3.48-1.19a4.27,4.27,0,0,0,3-2.57,3.82,3.82,0,0,0,.1-1.9.64.64,0,0,1,.42-.79l.09,0c.4-.05.63.26.69.67a6,6,0,0,1,0,2c-.08.37,0,.55.43.57a15.49,15.49,0,0,1,4.18,1,13,13,0,0,0,4.85.94c.47,0,.68-.12.62-.66a20.17,20.17,0,0,1,0-2.06A3.39,3.39,0,0,1,27,32.54c.22-.33.47-.67.91-.36a.62.62,0,0,1,.21.86.41.41,0,0,1-.1.13,1.35,1.35,0,0,0-.27.72,12.25,12.25,0,0,0,.33,4.51c.3,1.05.62,2.1,1,3.27ZM12.82,43.46A4,4,0,0,1,14.09,40c.33-.3.67-.59,1-.88a8.72,8.72,0,0,0,2.07-1.95c.14-.22.56-.56.08-.69a2,2,0,0,0-1.78.19,10.42,10.42,0,0,1-2.65,1.57c-.4.16-.61.36-.4.85a2.25,2.25,0,0,1-.24,2.17.93.93,0,0,0,0,1.26,4.81,4.81,0,0,1,.59.9Zm24.46-3.64c-1-1.8-2-3.5-2.91-5.35-.49.74-1,1.46-1.45,2.17-.23.32-.14.46.15.74,1.21,1.13,2.84,1.54,4.21,2.45ZM27.78,14a.86.86,0,0,0-.85-.61c.1.51.46.5.85.62Z"/></g></g></g></svg>