<?xml version="1.0" encoding="utf-8"?>
<!-- Generator: Adobe Illustrator 25.2.1, SVG Export Plug-In . SVG Version: 6.00 Build 0)  -->
<svg version="1.1" id="LOGO_HOVER_ANIMATE" xmlns="http://www.w3.org/2000/svg" xmlns:xlink="http://www.w3.org/1999/xlink" x="0px"
	 y="0px" viewBox="0 0 328 410.1" style="enable-background:new 0 0 328 410.1;" xml:space="preserve">
<style type="text/css">
	.st0{fill:#00695C;}
	.st1{opacity:0.5;fill:#E4E4E4;enable-background:new    ;}
</style>
<g id="JH">
	<path id="J" class="st0" d="M105.9,272.5c0,21.5-4.5,38.5-13.6,50.9c-9,12.4-23.3,18.7-42.7,18.7c-10.7,0-19.6-1.5-26.6-4.5
		c-7-3-12.3-6.3-16-9.9c-3.7-3.6-6-6.3-7-8.1l9.4-15.3c1.1,2.1,3,4.7,5.8,8c2.8,3.2,6.8,6.1,12.1,8.6c5.3,2.5,12.2,3.7,20.7,3.7
		c10.1,0,18-2.4,23.8-7.1c5.8-4.7,9.9-11,12.3-18.9c2.5-7.9,3.7-16.7,3.7-26.3V121h17.9V272.5z"/>
	<path id="H" class="st0" d="M282.9,237.6H164.8v100.5H147V121h17.8v99.9h118.1V121h17.6v217.1h-17.6V237.6z"/>
</g>
<path id="LOGO" class="st1" d="M288.7,365.5c5.2-7.7,9.3-16.1,12-25c4.2-15.3,2.5-26.2-12.5-35.3c-10.7-6.6-22.5-11.6-32.3-19.6
	c-1.8-1.5-2-0.4-2.8,1c-5,8.9-9,18.3-11.6,28.1c-4.9,17.5-7.4,35.7-7.3,53.9c0,4,0.5,8.1,0.8,12.2c0.1,1.9,0.6,4.4-2.5,3.8
	c-2.4-0.4-6.4,2.2-6.8-3.1c-0.9-10.6-0.9-21.2,0-31.8c0.9-7.9,0.7-15.9-0.5-23.8c-1.9-11.8-4.5-23.6-7.9-35.1
	c-1.1-3.5-2.5-5.5-7-5.1c-13.5,1.1-27-1.2-39.3-6.6c-4.2-1.8-9-1.5-13.2-3.7c-1.3-0.7-2.4,0-3,1.3c-6,13.4-19.5,19.7-29,29.8
	c-2.7,2.6-4.2,6.1-4.4,9.8c-1,17.9,4.3,35.6,15.1,50c3.2,4.3,5.8,9,7.9,13.9c1,2.2,3.3,4-0.7,4.5c-5.1,0.5-10-2.2-12.1-6.9
	c-4.9-10.3-11.1-19.8-17-29.5c-5-8.2-9.5-16.8-14-25.3c-1.3-2.3-2.8-4.4-4.3-6.5c-2.2-3-3.4-5.7,0.2-9.2c3.6-3.6,5-8.9,3.4-13.8
	c-0.8-2.9-2.2-4.3-5.4-3c-11.5,4.6-23.7,8-32.3,18.1c-3.1,4.1-5,8.9-5.7,14c-1.6,7.8-1.2,15.9,1.2,23.5c3.2,11.4,7.7,22.3,11.4,33.5
	c0.6,1.7,2.6,4.7-0.9,4.9c-2.8,0.2-7.4,2.8-8.6-2.9c-1-4.3-2.3-8.5-4-12.6c-5.5-14.5-9.7-29.4-15-44c-2.6-7-4.8-14.3-7.2-21.5
	c-1.1-2.7-0.2-5.7,2.1-7.4c9.3-8.7,15.7-18.7,14.7-32.3c-0.2-7.6,0.8-15.2,2.9-22.5c0.6-2.3,0.7-3.8-2.3-4.8
	c-9.3-3.2-17.4-9.2-23.3-17.1c-11.1-13.7-12.2-29.5-11.1-46c0.1-0.9,0.2-1.7,0.4-2.6c0.6-2.2,1.5-4.3,4.2-4.2
	c2.6-0.2,4.9,1.8,5.1,4.4c0.7,5.6,2.2,11.1,4.5,16.3c5.7,12.8,18.7,20.7,32.7,19.8c4.4,0.4,8.9-0.5,12.7-2.7
	c9.9-6.8,21.2-8.4,32.8-8.9c17-0.7,33.9,1.5,50.9,1.9c8.7,0.1,17.3-0.6,25.8-2.2c7.1-1.3,16.3-10.4,16.3-22.9
	c-0.1-6.4-0.5-12.7-1.4-19c-1.4-12.6-3-25.7,2.9-37c3.9-6.5,5.1-14.2,3.3-21.6c-0.1-1.9,0.3-3.9,1.2-5.6c1.5-4.4,4.7-5.2,7.7-1.7
	c4.2,4.7,10.6,5.5,15.3,9.1c0.8,0.6,2-0.1,2.8-1.2c-2.2-2.4-5.4-2.7-7.7-4.6c-22.4-18-30.9-51-14.5-76.9c2.2-3.6,4.6-7,7.3-10.3
	c1.3-1.5,3-2.6,4.8-3.2c2.1-0.7,4.4,0.1,5.6,1.9c1,1.6,0.6,3.7-0.9,4.8c-4.3,4.4-7.9,9.5-10.7,15c-4.9,8.8-6.4,19.1-4.2,29
	c3.1-6.4,5.7-13,9.3-19c1.8-3.1,3.8-5.5,7.4-3.3s2.6,5.4,0.5,8.2c-7.5,10.2-8.5,21.8-7.6,33.8c0.1,1,0.3,2.1,0.7,3.1
	c0.3,0.8,0.7,1.5,1.2,2.2c1.7-5.6,1.4-11,3.6-15.9c0.9-2.1,1.5-4.4,2.6-6.4c1.4-2.3,3.2-4.5,6.4-2.8c2.2,0.9,3.2,3.5,2.2,5.6
	c-0.1,0.2-0.2,0.4-0.3,0.6c-2.1,5-3.6,10.3-4.3,15.8c-1.4,10.9,0.6,15,11,18.3c17.5,6.3,37,2.1,50.4-10.7c1.1-1,2.2-2.1,3.2-3.2
	c2-2.1,4.2-2.6,6.3-0.2c1.7,1.4,2,4,0.6,5.7c-0.2,0.2-0.4,0.4-0.6,0.6c-10.7,13-25.1,18.2-41.6,20.1c4.2,3.8,8,7.8,11.6,12.1
	c2.2,2.5,3.8,5.5,4.7,8.8c0.4,3.4,2.2,6.4,5,8.2c4.9,3.2,7.8,8.1,12.1,11.7c0.7,0.5,1.3,1.2,1.6,2c1.4,5-8.9,17-14,16.1
	c-4.8-0.8-9.5-1.9-15.1-3c2.2,4.1,3.8,7.5,5.8,10.7c5.5,8.5,8.5,18.3,8.8,28.3c0.3,15,0.1,29.7-6.2,43.6c-2.5,5.5,1.5,9,3.5,13.1
	c3.5,7.2,7.7,14.1,11.4,21.2c4.4,8.3,9.6,16.3,15.4,23.7c2,2.3,2.9,5.5,2.5,8.5c-0.9,6.3-0.8,12.7,0.2,19c1.7,11.9-3.9,21.6-8,31.7
	C300.7,365.8,295.7,367.5,288.7,365.5z M31.1,205.5c-0.2-0.6-0.5-1.5-1.3-0.9c-0.6,0.5-0.3,1.3,0.5,1.6c3.2,8,9.2,14.6,16.8,18.6
	c8.5,5.1,9.4,4.7,13-4.2c0.1-0.3,0.3-0.6,0.5-0.8c2.1-3.2,0.4-3.7-2.3-3.4c-6.7,0.7-12.3-2.4-18-5.1C37.1,209.8,35,206.2,31.1,205.5
	L31.1,205.5z M232.3,310.5c4.3-12.9,10.1-25.3,17.4-36.8c4.6-5.8,8.8-11.9,12.6-18.3c6.2-12.4,12.2-24.9,12.6-39.3
	c0.4-15.6,1.1-31-8.8-44.6c-6.1-8.3-11.4-16.9-21.7-21.3c-5.6-2.1-10.7-5.6-14.7-10.1c-1.4-1.7-2.1-3.6-1-5.3
	c1.2-1.6,3.3-2.3,5.2-1.7c1.4,0.3,2.7,0.9,3.8,1.8c12.4,11.2,28.4,13.3,43.7,17.3c2.8,0.8,5.4,0.5,6.7-2.5s-1.9-3.7-3.2-5.3
	c-4.9-6-14.1-8.9-13.3-18.9c0-0.4-0.6-0.8-0.8-1.3c-4.5-7-10.8-12.6-18.4-16.1c-4.9-2.6-10.4-3.8-15.9-3.5c-2,0.2-3.1,0.7-3.3,3.1
	c-0.6,7.3-2.2,7.7-10.9,6.5c-1.3-0.2-2.5-0.5-3.7-0.7c-2.7-0.7-5.4,0.8-6.1,3.5c0,0.1-0.1,0.2-0.1,0.3c-3.3,8.6-4.6,17.8-3.8,27
	c0.8,9.9,2.6,19.6,2.4,29.6c-0.4,19.6-11.7,29.5-28.9,31.7c-9.1,1-18.4,1.2-27.5,0.7c-17-0.4-33.9-0.9-50.9-0.5
	c-15.8,0.4-28.5,6.5-35.6,21.5c-5.6,10.7-8.5,22.6-8.5,34.7c1.2,14.2-4.2,28.2-14.8,37.9c-1.4,1.1-1.9,3.1-1.1,4.7
	c1,2.6,1.9,5.3,2.9,8c0.3,0.8,0.6,1.9,1.7,1.7c0.8-0.4,1.4-1,1.6-1.9c1.9-8.2,7.8-13.2,14-17.9c4.8-3.5,10.2-6.2,15.9-7.8
	c8.7-2.7,17.2-6.1,25.9-8.9c9.8-3.2,18.7-8.4,22.5-19.1c1.4-4.6,1.7-9.4,0.8-14.1c-0.7-2.5,0.7-5.1,3.2-5.9c0.2-0.1,0.4-0.1,0.7-0.1
	c3-0.4,4.7,1.9,5.1,4.9c0.9,4.9,0.9,9.9,0.1,14.8c-0.6,2.8-0.2,4.1,3.2,4.3c10.7,1,21.2,3.6,31.1,7.6c11.5,4.6,23.8,7,36.2,7
	c3.5-0.2,5.1-0.9,4.6-5c-0.4-5.1-0.5-10.2-0.4-15.4c0.1-5.1,1.7-10.1,4.7-14.3c1.6-2.5,3.5-5,6.8-2.7c2.2,1.3,2.9,4.2,1.6,6.4
	c-0.2,0.4-0.5,0.7-0.8,1c-1.2,1.6-1.9,3.4-2,5.4c-1.3,11.2-0.5,22.6,2.4,33.6C227.4,294,229.7,301.8,232.3,310.5L232.3,310.5z
	 M111.5,323.8c-1.1-9.5,2.4-19,9.5-25.5c2.5-2.3,5-4.4,7.6-6.5c5.5-4.5,11.5-8.4,15.4-14.6c1-1.6,4.1-4.1,0.6-5.1
	c-4.4-1.7-9.3-1.1-13.3,1.4c-6,4.8-12.6,8.8-19.7,11.7c-3,1.2-4.5,2.7-3,6.3c2.2,5.4,1.6,11.5-1.8,16.2c-2.4,2.7-2.2,6.8,0.3,9.4
	C108.9,319.1,110.3,321.4,111.5,323.8z M293.8,296.8c-7.2-13.4-14.9-26.2-21.7-39.9c-3.7,5.5-7.2,10.9-10.8,16.2
	c-1.7,2.4-1.1,3.5,1.1,5.5C271.5,287,283.6,290,293.8,296.8L293.8,296.8z M223.1,104.4c-0.8-2.8-3.4-4.7-6.3-4.6
	C217.5,103.6,220.1,103.5,223.1,104.4L223.1,104.4z"/>
</svg>
