<svg xmlns="http://www.w3.org/2000/svg" width="492.318" height="1015.348" viewBox="0 0 492.318 1015.348">
  <g id="Componente_3_4" data-name="Componente 3 – 4" opacity="0.52">
    <path id="Caminho_6" data-name="Caminho 6" d="M438.365,791.519c-.862-45.219,7.4-89.75,10.829-134.662,3.244-42.411-2.075-83.228-17.538-122.757-4.9-12.562-12.9-20.635-28.162-17.315-5.656,1.228-11.326,2.559-17.07,3.349-39.708,5.484-46.562,3.963-49.544-29.512-.965-10.851-5.846-13.162-15.024-14-25.853-2.4-49.69,4.943-72.2,15.955C215.3,509.355,186.818,533.4,166.109,566.01c-1.271,2-3.961,4.036-3.814,5.85,3.522,45.613-38.524,58.819-60.782,86.094-5.846,7.239-20.724,10.018-14.425,24,6.065,13.528,17.538,14.712,30.559,11.246,69.332-18.5,142.157-28.079,198.759-78.972,4.531-4.08,11.239-6.2,17.3-8,9.339-2.764,18.721.424,23.705,7.693,5.349,7.809,1.929,16.248-4.384,24.013-17.888,21.937-42.923,35.742-66.847,45.95-46.928,20.035-71.071,58.907-98.8,96.96-37.194,51.01-41.623,107.446-41.009,165.344a354.875,354.875,0,0,0-38.875,69.159c-4.911-36.561-4.911-73.824-4.18-111.38.935-47.734,15.594-89.443,40.015-129.134,8.988-14.625,16.339-30.156,26.306-48.846-25.386,5.045-46.957,9.842-68.689,13.5-23.281,3.919-70.15-50.4-63.91-73.341,1.155-4.241,3.99-6.435,7.132-9.082,19.5-16.438,32.927-38.652,55.083-53.277a51.717,51.717,0,0,0,22.872-37.555c1.564-14.785,12.642-27.318,21.22-40.1,14.191-21.147,35.207-35.8,52.905-55.28C120.833,462.074,55.637,438.368,6.97,379.227c-9.66-11.7-8.871-19.231-.132-28.81,9.894-10.866,19.511-8.628,28.835.98,4.794,4.914,9.514,9.93,14.615,14.493,67.11,59.872,144.1,75.974,229.538,48.86,47.205-14.99,56.281-33.475,49.938-83.359a279.474,279.474,0,0,0-19.671-71.821c-4.954-12.021-4.019-22.214,8.637-28.62,14.732-7.444,22.96,2.34,29.127,12.972,5.188,8.935,7.614,19.436,11.911,28.942C369.793,295.107,368.376,320,376,345.342c2.733-4.768,4.691-7.181,5.539-9.93a64.119,64.119,0,0,0,3.025-14.069c4.078-54.842-.336-107.782-34.666-154.024-9.646-12.986-14.279-27.392,2.163-37.482s25.5.907,33.877,15.107c16.354,27.845,28.1,57.708,42.076,87,8.374-46.345,4.794-90.832-19-132-13.855-24.189-27.446-48.758-48.491-68.15-6.05-5.572-10.055-14.2-4.311-21.79,6.036-7.912,15.462-12.27,25.532-8.8a47.787,47.787,0,0,1,21.805,14.449,441.1,441.1,0,0,1,33.234,47.017c74.257,118.063,35.674,268.373-66.19,350.284-10.639,8.555-25.24,9.638-35.075,20.738,3.946,4.855,9.5,7.956,12.978,5.25,21.484-16.686,50.508-20.211,69.478-41.592,13.928-15.663,28.192-11.963,35.192,7.912,2.923,8.277,7.22,17.988,5.32,25.681-8.681,35.245-2.777,64.157,14.819,98.232,26.584,51.419,19.5,111.175,13.022,168.415-3.244,28.737-6.138,57.547-6.124,86.65,0,3.744.19,7.415.541,11.012-13.022.234-27.183.892-42.163,2.208C438.5,795.57,438.394,793.537,438.365,791.519ZM383.049,475.631c13.329-4.226,25.283-3.788,28.893-20.81-13.314,1.462-23.12,4.519-28.893,20.737Z" transform="translate(-0.002 0.002)" fill="#00695c"/>
  </g>
</svg>
