<svg id="MEMPH" xmlns="http://www.w3.org/2000/svg" width="178.639" height="178.639" viewBox="0 0 178.639 178.639">
  <path id="Caminho_28" data-name="Caminho 28" d="M2.216,2.213H44.111V44.1H2.216ZM0,46.324H46.324V0H0Z" fill="#efefef"/>
  <path id="Caminho_29" data-name="Caminho 29" d="M14.928,14.927H61.249V61.248H14.928Zm2.216,44.1H59.033V17.143H17.144Z" transform="translate(29.18 29.178)" fill="#efefef"/>
  <path id="Caminho_30" data-name="Caminho 30" d="M14.928,29.854H61.249V76.175H14.928Zm2.216,44.1H59.033V32.07H17.144Z" transform="translate(29.18 58.356)" fill="#efefef"/>
  <path id="Caminho_31" data-name="Caminho 31" d="M29.855,14.927H76.176V61.248H29.855Zm2.216,44.1H73.96V17.143H32.071Z" transform="translate(58.358 29.178)" fill="#efefef"/>
  <path id="Caminho_32" data-name="Caminho 32" d="M2.216,17.146H44.111V59.035H2.216ZM0,61.248H46.324V14.927H0Z" transform="translate(0 29.178)" fill="#efefef"/>
  <path id="Caminho_33" data-name="Caminho 33" d="M2.216,32.068H44.111V73.957H2.216ZM0,76.173H46.324V29.855H0Z" transform="translate(0 58.358)" fill="#efefef"/>
  <path id="Caminho_34" data-name="Caminho 34" d="M2.216,47H44.111V88.889H2.216ZM0,91.1H46.324V44.781H0Z" transform="translate(0 87.534)" fill="#efefef"/>
  <path id="Caminho_35" data-name="Caminho 35" d="M17.144,2.213H59.033V44.1H17.144ZM14.928,46.324H61.246V0H14.928Z" transform="translate(29.18)" fill="#efefef"/>
  <path id="Caminho_36" data-name="Caminho 36" d="M32.071,2.213H73.96V44.1H32.071ZM29.855,46.324H76.173V0H29.855Z" transform="translate(58.358)" fill="#efefef"/>
  <path id="Caminho_37" data-name="Caminho 37" d="M47,2.213H88.889V44.1H47ZM44.781,46.324H91.1V0H44.781Z" transform="translate(87.534)" fill="#efefef"/>
</svg>
