<svg xmlns="http://www.w3.org/2000/svg" xmlns:xlink="http://www.w3.org/1999/xlink" width="88.149" height="87.419" viewBox="0 0 88.149 87.419">
  <defs>
    <clipPath id="clip-path">
      <rect id="Retângulo_28" data-name="Retângulo 28" width="88.149" height="87.419" fill="none"/>
    </clipPath>
  </defs>
  <g id="Grupo_32" data-name="Grupo 32" clip-path="url(#clip-path)">
    <path id="Caminho_39" data-name="Caminho 39" d="M4.286,2.142A2.143,2.143,0,1,1,2.143,0,2.143,2.143,0,0,1,4.286,2.142" fill="#efefef"/>
    <path id="Caminho_40" data-name="Caminho 40" d="M41.12,2.142A2.143,2.143,0,1,1,38.977,0,2.143,2.143,0,0,1,41.12,2.142" transform="translate(-8.88)" fill="#efefef"/>
    <path id="Caminho_41" data-name="Caminho 41" d="M77.953,2.142A2.143,2.143,0,1,1,75.81,0a2.143,2.143,0,0,1,2.143,2.142" transform="translate(-17.759)" fill="#efefef"/>
    <path id="Caminho_42" data-name="Caminho 42" d="M114.787,2.142A2.143,2.143,0,1,1,112.644,0a2.143,2.143,0,0,1,2.143,2.142" transform="translate(-26.638)" fill="#efefef"/>
    <path id="Caminho_43" data-name="Caminho 43" d="M4.286,38.656a2.143,2.143,0,1,1-2.143-2.143,2.143,2.143,0,0,1,2.143,2.143" transform="translate(0 -8.802)" fill="#efefef"/>
    <path id="Caminho_44" data-name="Caminho 44" d="M41.12,38.656a2.143,2.143,0,1,1-2.143-2.143,2.143,2.143,0,0,1,2.143,2.143" transform="translate(-8.88 -8.802)" fill="#efefef"/>
    <path id="Caminho_45" data-name="Caminho 45" d="M77.953,38.656a2.143,2.143,0,1,1-2.143-2.143,2.143,2.143,0,0,1,2.143,2.143" transform="translate(-17.759 -8.802)" fill="#efefef"/>
    <path id="Caminho_46" data-name="Caminho 46" d="M114.787,38.656a2.143,2.143,0,1,1-2.143-2.143,2.143,2.143,0,0,1,2.143,2.143" transform="translate(-26.638 -8.802)" fill="#efefef"/>
    <path id="Caminho_47" data-name="Caminho 47" d="M4.286,75.169a2.143,2.143,0,1,1-2.143-2.143,2.143,2.143,0,0,1,2.143,2.143" transform="translate(0 -17.604)" fill="#efefef"/>
    <path id="Caminho_48" data-name="Caminho 48" d="M41.12,75.169a2.143,2.143,0,1,1-2.143-2.143,2.143,2.143,0,0,1,2.143,2.143" transform="translate(-8.88 -17.604)" fill="#efefef"/>
    <path id="Caminho_49" data-name="Caminho 49" d="M77.953,75.169a2.143,2.143,0,1,1-2.143-2.143,2.143,2.143,0,0,1,2.143,2.143" transform="translate(-17.759 -17.604)" fill="#efefef"/>
    <path id="Caminho_50" data-name="Caminho 50" d="M114.787,75.169a2.143,2.143,0,1,1-2.143-2.143,2.143,2.143,0,0,1,2.143,2.143" transform="translate(-26.638 -17.604)" fill="#efefef"/>
    <path id="Caminho_51" data-name="Caminho 51" d="M4.286,111.682a2.143,2.143,0,1,1-2.143-2.143,2.143,2.143,0,0,1,2.143,2.143" transform="translate(0 -26.407)" fill="#efefef"/>
    <path id="Caminho_52" data-name="Caminho 52" d="M41.12,111.682a2.143,2.143,0,1,1-2.143-2.143,2.142,2.142,0,0,1,2.143,2.143" transform="translate(-8.88 -26.407)" fill="#efefef"/>
    <path id="Caminho_53" data-name="Caminho 53" d="M77.953,111.682a2.143,2.143,0,1,1-2.143-2.143,2.142,2.142,0,0,1,2.143,2.143" transform="translate(-17.759 -26.407)" fill="#efefef"/>
    <path id="Caminho_54" data-name="Caminho 54" d="M114.787,111.682a2.143,2.143,0,1,1-2.143-2.143,2.143,2.143,0,0,1,2.143,2.143" transform="translate(-26.638 -26.407)" fill="#efefef"/>
  </g>
</svg>
